<svg id="Слой_1" data-name="Слой 1" xmlns="http://www.w3.org/2000/svg" viewBox="0 0 164.42 111.26"><defs><style>.cls-1{fill:#c69544;}.cls-1,.cls-8{stroke:#9e752a;stroke-miterlimit:10;}.cls-2{fill:#9e752a;}.cls-3{fill:#897b6a;}.cls-4,.cls-8{fill:none;}.cls-5,.cls-6{fill:#fff;}.cls-5{fill-rule:evenodd;}.cls-7{fill:#fdcb79;}.cls-8{stroke-dasharray:1.99 1.99;}.cls-9{font-size:14.71px;fill:#9b703e;font-family:Geometric415BT-BlackA, Geometr415 Blk BT;font-weight:800;}</style></defs><title>sandi_logo</title><path class="cls-1" d="M45.58,110l-.47,15a96.15,96.15,0,0,1-40-11.6l12-6.17S13.76,104,15.44,95A74.37,74.37,0,0,0,40,103.28,6.57,6.57,0,0,1,45.58,110Z" transform="translate(-4.1 -26.2)"/><polygon class="cls-2" points="33.92 83.1 24.39 80.07 34.18 82.13 33.92 83.1"/><polygon class="cls-2" points="34.18 82.11 24.65 79.08 34.44 81.15 34.18 82.11"/><polygon class="cls-2" points="34.49 80.95 24.95 77.92 34.74 79.98 34.49 80.95"/><polygon class="cls-2" points="34.79 79.81 25.25 76.78 35.04 78.85 34.79 79.81"/><polygon class="cls-2" points="34.79 78.54 25.25 75.51 35.04 77.57 34.79 78.54"/><polygon class="cls-2" points="20.5 94.26 11.1 90.84 20.79 93.31 20.5 94.26"/><polygon class="cls-2" points="22.28 93.49 12.87 90.07 22.57 92.54 22.28 93.49"/><polygon class="cls-2" points="23.81 92.71 14.41 89.28 24.11 91.75 23.81 92.71"/><polygon class="cls-2" points="25.27 92.29 15.87 88.86 25.57 91.33 25.27 92.29"/><path class="cls-1" d="M165.71,129.38a26.52,26.52,0,0,1-9.1,1.46c-9.18,0-19.12-3.56-25.38-6.28-3.08-1.33-4.57-5.5-3.25-9.08l4.7-12.84c7.91,4.11,21.77,8.89,27.81,6.66l.09.33-4.3,9.79S162.61,129.38,165.71,129.38Z" transform="translate(-4.1 -26.2)"/><polygon class="cls-2" points="123.59 92.19 133.43 96.14 123.26 93.13 123.59 92.19"/><polygon class="cls-2" points="123.59 90.83 133.43 94.79 123.26 91.78 123.59 90.83"/><polygon class="cls-2" points="123.79 93.23 133.63 97.19 123.47 94.17 123.79 93.23"/><polygon class="cls-2" points="123.59 91.49 133.43 95.45 123.26 92.43 123.59 91.49"/><polygon class="cls-2" points="124.14 94.41 133.97 98.37 123.81 95.36 124.14 94.41"/><polygon class="cls-2" points="124.57 95.45 134.41 99.41 124.24 96.39 124.57 95.45"/><polygon class="cls-2" points="125.44 96.53 135.27 100.49 125.11 97.48 125.44 96.53"/><polygon class="cls-2" points="124.2 90.44 134.03 94.4 123.87 91.39 124.2 90.44"/><path class="cls-3" d="M135.8,88.55a13.7,13.7,0,0,1-8.58,22.58,13.69,13.69,0,0,1-18.08,16,13.7,13.7,0,0,1-23.46,5.77,13.69,13.69,0,0,1-23.45-5.79,13.69,13.69,0,0,1-18.08-16,13.69,13.69,0,0,1-8.56-22.58,13.7,13.7,0,0,1,2.91-24A13.7,13.7,0,0,1,52.22,44.66a13.71,13.71,0,0,1,21.4-11.22,13.69,13.69,0,0,1,24.16,0,13.7,13.7,0,0,1,21.4,11.22,13.69,13.69,0,0,1,13.71,19.89,13.7,13.7,0,0,1,2.91,24Z" transform="translate(-4.1 -26.2)"/><path class="cls-4" d="M82.81,130a10.25,10.25,0,0,1-1.48,1.4l1.39,1.8a12.42,12.42,0,0,0,1.78-1.68Z" transform="translate(-4.1 -26.2)"/><path class="cls-5" d="M82,132.25a1.13,1.13,0,0,1,1.64-1.54A1.13,1.13,0,1,1,82,132.25Z" transform="translate(-4.1 -26.2)"/><path class="cls-4" d="M79.79,132.32a9.69,9.69,0,0,1-1.88.71l.57,2.2a11.29,11.29,0,0,0,2.33-.88Z" transform="translate(-4.1 -26.2)"/><path class="cls-5" d="M78.19,134.13a1.19,1.19,0,0,1,.68-1.4,1.17,1.17,0,0,1,1.43.61,1.13,1.13,0,1,1-2.11.79Z" transform="translate(-4.1 -26.2)"/><path class="cls-4" d="M76.11,133.32a9.67,9.67,0,0,1-2-.08l-.33,2.25a12.09,12.09,0,0,0,2.48.1Z" transform="translate(-4.1 -26.2)"/><path class="cls-5" d="M73.93,134.36a1.2,1.2,0,0,1,1.17-1,1.18,1.18,0,0,1,1.08,1.12,1.13,1.13,0,1,1-2.25-.09Z" transform="translate(-4.1 -26.2)"/><path class="cls-4" d="M72.33,132.8a9.38,9.38,0,0,1-1.81-.86l-1.19,1.94a11.84,11.84,0,0,0,2.25,1.06Z" transform="translate(-4.1 -26.2)"/><path class="cls-5" d="M69.92,132.91a1.13,1.13,0,0,1,2,1,1.13,1.13,0,1,1-2-1Z" transform="translate(-4.1 -26.2)"/><path class="cls-4" d="M69.06,130.84a8.26,8.26,0,0,1-1.33-1.5l-1.85,1.33a11.63,11.63,0,0,0,1.65,1.86Z" transform="translate(-4.1 -26.2)"/><path class="cls-5" d="M66.8,130a1.13,1.13,0,0,1,1.49,1.69A1.13,1.13,0,1,1,66.8,130Z" transform="translate(-4.1 -26.2)"/><path class="cls-4" d="M66.81,127.77a9.84,9.84,0,0,1-.66-1.94l-2.21.57a13.3,13.3,0,0,0,.8,2.32Z" transform="translate(-4.1 -26.2)"/><path class="cls-5" d="M65.05,126.12a1.12,1.12,0,0,1,.73,2.12,1.12,1.12,0,1,1-.73-2.12Z" transform="translate(-4.1 -26.2)"/><path class="cls-4" d="M61.07,123.17a9.77,9.77,0,0,1-2,.55L59.5,126a12.62,12.62,0,0,0,2.36-.67Z" transform="translate(-4.1 -26.2)"/><path class="cls-5" d="M59.3,124.85a1.13,1.13,0,0,1,2.17-.61,1.13,1.13,0,1,1-2.17.61Z" transform="translate(-4.1 -26.2)"/><path class="cls-4" d="M57.29,123.86a9.5,9.5,0,0,1-2-.24l-.52,2.21a12.1,12.1,0,0,0,2.47.31Z" transform="translate(-4.1 -26.2)"/><path class="cls-5" d="M55,124.73a1.12,1.12,0,0,1,2.23.27,1.13,1.13,0,1,1-2.23-.27Z" transform="translate(-4.1 -26.2)"/><path class="cls-4" d="M53.57,123a10.8,10.8,0,0,1-1.74-1l-1.34,1.84a12.2,12.2,0,0,0,2.16,1.24Z" transform="translate(-4.1 -26.2)"/><path class="cls-5" d="M51.16,123a1.13,1.13,0,0,1,2,1.13,1.13,1.13,0,1,1-2-1.13Z" transform="translate(-4.1 -26.2)"/><path class="cls-4" d="M50.47,120.82a9.89,9.89,0,0,1-1.21-1.6l-1.95,1.17a11.59,11.59,0,0,0,1.5,2Z" transform="translate(-4.1 -26.2)"/><path class="cls-5" d="M48.29,119.8a1.13,1.13,0,0,1,1.35,1.8,1.13,1.13,0,1,1-1.35-1.8Z" transform="translate(-4.1 -26.2)"/><path class="cls-4" d="M48.48,117.57a9.13,9.13,0,0,1-.49-1.95l-2.25.32a11.81,11.81,0,0,0,.6,2.41Z" transform="translate(-4.1 -26.2)"/><path class="cls-5" d="M46.87,115.78a1.19,1.19,0,0,1,1.31.83,1.17,1.17,0,0,1-.77,1.35,1.13,1.13,0,1,1-.54-2.18Z" transform="translate(-4.1 -26.2)"/><path class="cls-4" d="M47.91,113.81a10.34,10.34,0,0,1,.32-2L46,111.26a13.55,13.55,0,0,0-.37,2.43Z" transform="translate(-4.1 -26.2)"/><path class="cls-5" d="M47.12,111.52a1.13,1.13,0,0,1-.34,2.23,1.13,1.13,0,1,1,.34-2.23Z" transform="translate(-4.1 -26.2)"/><path class="cls-4" d="M45,107.07a10.59,10.59,0,0,1-2-.43l-.69,2.17a13,13,0,0,0,2.4.51Z" transform="translate(-4.1 -26.2)"/><path class="cls-5" d="M42.63,107.73A1.18,1.18,0,0,1,44,106.9a1.2,1.2,0,0,1,.88,1.3,1.13,1.13,0,1,1-2.2-.47Z" transform="translate(-4.1 -26.2)"/><path class="cls-4" d="M41.3,105.92a9,9,0,0,1-1.65-1.14l-1.49,1.72a11.53,11.53,0,0,0,2.05,1.42Z" transform="translate(-4.1 -26.2)"/><path class="cls-5" d="M38.91,105.64a1.12,1.12,0,0,1,1.84,1.28,1.12,1.12,0,1,1-1.84-1.28Z" transform="translate(-4.1 -26.2)"/><path class="cls-4" d="M38.39,103.46a8.54,8.54,0,0,1-1.07-1.7l-2,1a11,11,0,0,0,1.33,2.1Z" transform="translate(-4.1 -26.2)"/><path class="cls-5" d="M36.3,102.27a1.17,1.17,0,0,1,1.51.38,1.19,1.19,0,0,1-.31,1.52,1.13,1.13,0,1,1-1.2-1.9Z" transform="translate(-4.1 -26.2)"/><path class="cls-4" d="M36.67,100.06a9.4,9.4,0,0,1-.32-2l-2.27.13a10.72,10.72,0,0,0,.4,2.45Z" transform="translate(-4.1 -26.2)"/><path class="cls-5" d="M35.21,98.14a1.19,1.19,0,0,1,1.24.94,1.16,1.16,0,0,1-.87,1.28,1.13,1.13,0,1,1-.37-2.22Z" transform="translate(-4.1 -26.2)"/><path class="cls-4" d="M36.42,96.26a8.67,8.67,0,0,1,.47-2l-2.14-.77A11.11,11.11,0,0,0,34.16,96Z" transform="translate(-4.1 -26.2)"/><path class="cls-5" d="M35.82,93.92a1.13,1.13,0,0,1-.53,2.19,1.13,1.13,0,1,1,.53-2.19Z" transform="translate(-4.1 -26.2)"/><path class="cls-4" d="M37.66,92.66A9.82,9.82,0,0,1,38.88,91l-1.72-1.5a12.77,12.77,0,0,0-1.45,2Z" transform="translate(-4.1 -26.2)"/><path class="cls-5" d="M38,90.27a1.12,1.12,0,0,1-1.33,1.81A1.13,1.13,0,1,1,38,90.27Z" transform="translate(-4.1 -26.2)"/><path class="cls-4" d="M38.19,85.33A10.19,10.19,0,0,1,36.62,84L35,85.61a12.6,12.6,0,0,0,1.88,1.58Z" transform="translate(-4.1 -26.2)"/><path class="cls-5" d="M35.81,84.82a1.13,1.13,0,0,1,1.73,1.44,1.1,1.1,0,0,1-1.63.2A1.09,1.09,0,0,1,35.81,84.82Z" transform="translate(-4.1 -26.2)"/><path class="cls-4" d="M35.47,82.61a9.21,9.21,0,0,1-.93-1.79l-2.11.84a11.52,11.52,0,0,0,1.15,2.2Z" transform="translate(-4.1 -26.2)"/><path class="cls-5" d="M33.49,81.24a1.12,1.12,0,0,1,1,2,1.13,1.13,0,1,1-1-2Z" transform="translate(-4.1 -26.2)"/><path class="cls-4" d="M34,79.08a9,9,0,0,1-.15-2L31.61,77a10.84,10.84,0,0,0,.2,2.48Z" transform="translate(-4.1 -26.2)"/><path class="cls-5" d="M32.75,77a1.12,1.12,0,0,1,.17,2.24,1.09,1.09,0,0,1-1.28-1A1.1,1.1,0,0,1,32.75,77Z" transform="translate(-4.1 -26.2)"/><path class="cls-4" d="M34.11,75.26a8.65,8.65,0,0,1,.63-1.9l-2.07-.94a11.26,11.26,0,0,0-.78,2.36Z" transform="translate(-4.1 -26.2)"/><path class="cls-5" d="M33.7,72.89a1.17,1.17,0,0,1,.67,1.4A1.18,1.18,0,0,1,33,75a1.1,1.1,0,0,1-.79-1.44A1.08,1.08,0,0,1,33.7,72.89Z" transform="translate(-4.1 -26.2)"/><path class="cls-4" d="M35.65,71.78A9,9,0,0,1,37,70.27L35.43,68.6a11.15,11.15,0,0,0-1.64,1.86Z" transform="translate(-4.1 -26.2)"/><path class="cls-5" d="M36.2,69.43a1.12,1.12,0,0,1-1.48,1.69,1.13,1.13,0,1,1,1.48-1.69Z" transform="translate(-4.1 -26.2)"/><path class="cls-4" d="M38.42,69.17a10.45,10.45,0,0,1,1.84-.89l-.82-2.12a12.82,12.82,0,0,0-2.21,1.07Z" transform="translate(-4.1 -26.2)"/><path class="cls-5" d="M39.85,67.22a1.12,1.12,0,0,1-2,1,1.12,1.12,0,1,1,2-1Z" transform="translate(-4.1 -26.2)"/><path class="cls-4" d="M42.29,62.92A10.48,10.48,0,0,1,41.51,61l-2.18.66A12.43,12.43,0,0,0,40.27,64Z" transform="translate(-4.1 -26.2)"/><path class="cls-5" d="M40.42,61.36a1.13,1.13,0,0,1,.86,2.08,1.13,1.13,0,1,1-.86-2.08Z" transform="translate(-4.1 -26.2)"/><path class="cls-4" d="M41.15,59.25a9,9,0,0,1,0-2L38.9,57a10.83,10.83,0,0,0,0,2.48Z" transform="translate(-4.1 -26.2)"/><path class="cls-5" d="M40,57.12a1.13,1.13,0,0,1,0,2.25,1.13,1.13,0,1,1,0-2.25Z" transform="translate(-4.1 -26.2)"/><path class="cls-4" d="M41.52,55.46a9.45,9.45,0,0,1,.79-1.85l-2-1.11a11.28,11.28,0,0,0-1,2.29Z" transform="translate(-4.1 -26.2)"/><path class="cls-5" d="M41.32,53.06a1.12,1.12,0,0,1-.88,2.06,1.09,1.09,0,0,1-.67-1.5A1.1,1.1,0,0,1,41.32,53.06Z" transform="translate(-4.1 -26.2)"/><path class="cls-4" d="M43.35,52.11a9.47,9.47,0,0,1,1.44-1.39l-1.39-1.8a11.27,11.27,0,0,0-1.79,1.73Z" transform="translate(-4.1 -26.2)"/><path class="cls-5" d="M44.09,49.82A1.18,1.18,0,0,1,44,51.38a1.19,1.19,0,0,1-1.55,0,1.12,1.12,0,1,1,1.61-1.56Z" transform="translate(-4.1 -26.2)"/><path class="cls-4" d="M46.33,49.74A9.69,9.69,0,0,1,48.21,49l-.59-2.2a11.45,11.45,0,0,0-2.32.89Z" transform="translate(-4.1 -26.2)"/><path class="cls-5" d="M47.92,47.93a1.18,1.18,0,0,1-.67,1.4,1.17,1.17,0,0,1-1.43-.6,1.13,1.13,0,1,1,2.1-.8Z" transform="translate(-4.1 -26.2)"/><path class="cls-4" d="M50,48.72a11.77,11.77,0,0,1,2,.07l.25-2.26a15.37,15.37,0,0,0-2.46-.08Z" transform="translate(-4.1 -26.2)"/><path class="cls-5" d="M52.17,47.65a1.12,1.12,0,0,1-2.24-.06,1.12,1.12,0,1,1,2.24.06Z" transform="translate(-4.1 -26.2)"/><path class="cls-4" d="M56.33,45a9.58,9.58,0,0,1,.19-2l-2.24-.43A12.8,12.8,0,0,0,54.06,45Z" transform="translate(-4.1 -26.2)"/><path class="cls-5" d="M55.4,42.73A1.13,1.13,0,0,1,55.19,45a1.13,1.13,0,1,1,.21-2.24Z" transform="translate(-4.1 -26.2)"/><path class="cls-4" d="M57,41.2A9.1,9.1,0,0,1,58,39.43l-1.89-1.27a11.27,11.27,0,0,0-1.16,2.2Z" transform="translate(-4.1 -26.2)"/><path class="cls-5" d="M57,38.79a1.13,1.13,0,0,1-1.06,2,1.13,1.13,0,1,1,1.06-2Z" transform="translate(-4.1 -26.2)"/><path class="cls-4" d="M59.12,38a9.89,9.89,0,0,1,1.56-1.26l-1.23-1.91a11.3,11.3,0,0,0-1.94,1.57Z" transform="translate(-4.1 -26.2)"/><path class="cls-5" d="M60.06,35.8a1.12,1.12,0,0,1-1.74,1.42,1.13,1.13,0,1,1,1.74-1.42Z" transform="translate(-4.1 -26.2)"/><path class="cls-4" d="M62.3,35.9a9.92,9.92,0,0,1,1.93-.56l-.41-2.24a11.89,11.89,0,0,0-2.39.7Z" transform="translate(-4.1 -26.2)"/><path class="cls-5" d="M64,34.22a1.21,1.21,0,0,1-.78,1.35,1.19,1.19,0,0,1-1.38-.72A1.13,1.13,0,1,1,64,34.22Z" transform="translate(-4.1 -26.2)"/><path class="cls-4" d="M66,35.19a9.67,9.67,0,0,1,2,.24l.5-2.22a12.08,12.08,0,0,0-2.47-.29Z" transform="translate(-4.1 -26.2)"/><path class="cls-5" d="M68.29,34.32a1.12,1.12,0,0,1-2.23-.26,1.12,1.12,0,1,1,2.23.26Z" transform="translate(-4.1 -26.2)"/><path class="cls-4" d="M69.77,36a9.9,9.9,0,0,1,1.77,1l1.28-1.88a11.73,11.73,0,0,0-2.14-1.21Z" transform="translate(-4.1 -26.2)"/><path class="cls-5" d="M72.18,36.07a1.19,1.19,0,0,1-1.51.38A1.17,1.17,0,0,1,70.23,35a1.09,1.09,0,0,1,1.56-.49A1.1,1.1,0,0,1,72.18,36.07Z" transform="translate(-4.1 -26.2)"/><path class="cls-4" d="M77.11,35.64a10,10,0,0,1,1.11-1.72L76.44,32.5a13.18,13.18,0,0,0-1.34,2.06Z" transform="translate(-4.1 -26.2)"/><path class="cls-5" d="M77.33,33.21A1.13,1.13,0,0,1,76.1,35.1a1.13,1.13,0,1,1,1.23-1.89Z" transform="translate(-4.1 -26.2)"/><path class="cls-4" d="M79.48,32.61a10,10,0,0,1,1.66-1.14l-1.08-2a11.48,11.48,0,0,0-2,1.41Z" transform="translate(-4.1 -26.2)"/><path class="cls-5" d="M80.6,30.47a1.13,1.13,0,0,1-1.85,1.28,1.13,1.13,0,1,1,1.85-1.28Z" transform="translate(-4.1 -26.2)"/><path class="cls-4" d="M82.82,30.76a8.82,8.82,0,0,1,2-.39l-.21-2.27a10.69,10.69,0,0,0-2.44.5Z" transform="translate(-4.1 -26.2)"/><path class="cls-5" d="M84.68,29.23a1.12,1.12,0,0,1-2.2.45,1.13,1.13,0,1,1,2.2-.45Z" transform="translate(-4.1 -26.2)"/><path class="cls-4" d="M86.61,30.37a8.31,8.31,0,0,1,2,.4l.69-2.17a11.88,11.88,0,0,0-2.44-.5Z" transform="translate(-4.1 -26.2)"/><path class="cls-5" d="M88.93,29.68a1.13,1.13,0,0,1-2.21-.44,1.13,1.13,0,1,1,2.21.44Z" transform="translate(-4.1 -26.2)"/><path class="cls-4" d="M90.26,31.48a9.4,9.4,0,0,1,1.66,1.14L93.4,30.9a11,11,0,0,0-2.05-1.42Z" transform="translate(-4.1 -26.2)"/><path class="cls-5" d="M92.66,31.76a1.13,1.13,0,0,1-1.86-1.28,1.13,1.13,0,1,1,1.86,1.28Z" transform="translate(-4.1 -26.2)"/><path class="cls-4" d="M93.18,33.93a9.71,9.71,0,0,1,1.1,1.72l2-1.07A12.86,12.86,0,0,0,95,32.52Z" transform="translate(-4.1 -26.2)"/><path class="cls-5" d="M95.29,35.12a1.13,1.13,0,0,1-1.22-1.89,1.13,1.13,0,1,1,1.22,1.89Z" transform="translate(-4.1 -26.2)"/><path class="cls-4" d="M99.85,37a10.31,10.31,0,0,1,1.78-1l-.92-2.08a13.08,13.08,0,0,0-2.14,1.22Z" transform="translate(-4.1 -26.2)"/><path class="cls-5" d="M101.17,35a1.13,1.13,0,0,1-2,1.12,1.13,1.13,0,1,1,2-1.12Z" transform="translate(-4.1 -26.2)"/><path class="cls-4" d="M103.36,35.44a9.5,9.5,0,0,1,2-.24l0-2.27a12.08,12.08,0,0,0-2.47.29Z" transform="translate(-4.1 -26.2)"/><path class="cls-5" d="M105.34,34.07a1.19,1.19,0,0,1-1,1.2,1.2,1.2,0,0,1-1.25-.94,1.13,1.13,0,1,1,2.24-.26Z" transform="translate(-4.1 -26.2)"/><path class="cls-4" d="M107.17,35.35a9.27,9.27,0,0,1,1.93.56l.86-2.1a11.7,11.7,0,0,0-2.39-.7Z" transform="translate(-4.1 -26.2)"/><path class="cls-5" d="M109.53,34.86a1.13,1.13,0,0,1-2.16-.63,1.13,1.13,0,1,1,2.16.63Z" transform="translate(-4.1 -26.2)"/><path class="cls-4" d="M110.71,36.76A9.11,9.11,0,0,1,112.27,38l1.61-1.6A11.23,11.23,0,0,0,112,34.86Z" transform="translate(-4.1 -26.2)"/><path class="cls-5" d="M113.08,37.23a1.13,1.13,0,0,1-1.75-1.42,1.13,1.13,0,1,1,1.75,1.42Z" transform="translate(-4.1 -26.2)"/><path class="cls-4" d="M113.43,39.44a8.9,8.9,0,0,1,.94,1.78l2.11-.85a11.27,11.27,0,0,0-1.16-2.2Z" transform="translate(-4.1 -26.2)"/><path class="cls-5" d="M115.43,40.79a1.13,1.13,0,0,1-1.06-2,1.13,1.13,0,1,1,1.06,2Z" transform="translate(-4.1 -26.2)"/><path class="cls-4" d="M114.89,43a10.4,10.4,0,0,1,.18,2l2.27,0a12.9,12.9,0,0,0-.22-2.45Z" transform="translate(-4.1 -26.2)"/><path class="cls-5" d="M116.21,45a1.13,1.13,0,0,1-.21-2.24,1.09,1.09,0,0,1,1.29,1A1.1,1.1,0,0,1,116.21,45Z" transform="translate(-4.1 -26.2)"/><path class="cls-4" d="M119.35,48.8a12.81,12.81,0,0,1,2-.06l.17-2.27a14.3,14.3,0,0,0-2.46.07Z" transform="translate(-4.1 -26.2)"/><path class="cls-5" d="M121.48,47.6a1.23,1.23,0,0,1-1.09,1.13,1.21,1.21,0,0,1-1.16-1.06,1.13,1.13,0,1,1,2.25-.07Z" transform="translate(-4.1 -26.2)"/><path class="cls-4" d="M123.19,49a9.12,9.12,0,0,1,1.88.72l1-2a12.08,12.08,0,0,0-2.32-.89Z" transform="translate(-4.1 -26.2)"/><path class="cls-5" d="M125.58,48.75a1.18,1.18,0,0,1-1.43.6,1.19,1.19,0,0,1-.67-1.41,1.13,1.13,0,1,1,2.1.81Z" transform="translate(-4.1 -26.2)"/><path class="cls-4" d="M126.61,50.74a10,10,0,0,1,1.44,1.39l1.74-1.46A11.27,11.27,0,0,0,128,48.94Z" transform="translate(-4.1 -26.2)"/><path class="cls-5" d="M128.92,51.4a1.13,1.13,0,0,1-1.62-1.56,1.13,1.13,0,1,1,1.62,1.56Z" transform="translate(-4.1 -26.2)"/><path class="cls-4" d="M129.08,53.63a8.38,8.38,0,0,1,.79,1.85l2.18-.67a11.62,11.62,0,0,0-1-2.29Z" transform="translate(-4.1 -26.2)"/><path class="cls-5" d="M131,55.14a1.19,1.19,0,0,1-1.43-.61,1.17,1.17,0,0,1,.55-1.45,1.12,1.12,0,1,1,.88,2.06Z" transform="translate(-4.1 -26.2)"/><path class="cls-4" d="M130.24,57.26a9,9,0,0,1,0,2l2.26.23a10.83,10.83,0,0,0,0-2.48Z" transform="translate(-4.1 -26.2)"/><path class="cls-5" d="M131.38,59.39a1.13,1.13,0,0,1,0-2.25,1.13,1.13,0,1,1,0,2.25Z" transform="translate(-4.1 -26.2)"/><path class="cls-4" d="M129.89,61.05a10.13,10.13,0,0,1-.79,1.89l2,1a13.2,13.2,0,0,0,.95-2.27Z" transform="translate(-4.1 -26.2)"/><path class="cls-5" d="M130.11,63.46a1.13,1.13,0,0,1,.87-2.08,1.13,1.13,0,1,1-.87,2.08Z" transform="translate(-4.1 -26.2)"/><path class="cls-4" d="M131.13,68.3a10.45,10.45,0,0,1,1.84.89l1.19-1.94a13.1,13.1,0,0,0-2.2-1.07Z" transform="translate(-4.1 -26.2)"/><path class="cls-5" d="M133.57,68.22a1.13,1.13,0,0,1-2-1,1.13,1.13,0,1,1,2,1Z" transform="translate(-4.1 -26.2)"/><path class="cls-4" d="M134.42,70.29a9.59,9.59,0,0,1,1.33,1.51l1.85-1.32A11.15,11.15,0,0,0,136,68.62Z" transform="translate(-4.1 -26.2)"/><path class="cls-5" d="M136.67,71.14a1.12,1.12,0,0,1-1.48-1.69,1.13,1.13,0,1,1,1.48,1.69Z" transform="translate(-4.1 -26.2)"/><path class="cls-4" d="M136.65,73.38a9.24,9.24,0,0,1,.64,1.9l2.22-.48a10.74,10.74,0,0,0-.79-2.36Z" transform="translate(-4.1 -26.2)"/><path class="cls-5" d="M138.4,75a1.12,1.12,0,0,1-.71-2.13,1.08,1.08,0,0,1,1.49.68A1.1,1.1,0,0,1,138.4,75Z" transform="translate(-4.1 -26.2)"/><path class="cls-4" d="M137.51,77.09a9.68,9.68,0,0,1-.16,2l2.24.41a11.48,11.48,0,0,0,.19-2.48Z" transform="translate(-4.1 -26.2)"/><path class="cls-5" d="M138.47,79.3a1.12,1.12,0,0,1,.17-2.24,1.1,1.1,0,0,1,1.11,1.22A1.09,1.09,0,0,1,138.47,79.3Z" transform="translate(-4.1 -26.2)"/><path class="cls-4" d="M136.85,80.84a9.21,9.21,0,0,1-.93,1.79l1.89,1.25a11,11,0,0,0,1.15-2.2Z" transform="translate(-4.1 -26.2)"/><path class="cls-5" d="M136.87,83.25a1.12,1.12,0,0,1,1-2,1.1,1.1,0,0,1,.54,1.55A1.09,1.09,0,0,1,136.87,83.25Z" transform="translate(-4.1 -26.2)"/><path class="cls-4" d="M134.77,84a9.61,9.61,0,0,1-1.57,1.3l1.31,1.86a12.49,12.49,0,0,0,1.89-1.57Z" transform="translate(-4.1 -26.2)"/><path class="cls-5" d="M133.86,86.27a1.12,1.12,0,0,1,1.73-1.43,1.12,1.12,0,1,1-1.73,1.43Z" transform="translate(-4.1 -26.2)"/><path class="cls-4" d="M132.5,91a10.32,10.32,0,0,1,1.22,1.65l1.95-1.16a12.77,12.77,0,0,0-1.45-2Z" transform="translate(-4.1 -26.2)"/><path class="cls-5" d="M134.69,92.1a1.18,1.18,0,0,1-1.53-.27,1.2,1.2,0,0,1,.2-1.55,1.13,1.13,0,1,1,1.33,1.82Z" transform="translate(-4.1 -26.2)"/><path class="cls-4" d="M134.49,94.32a9.49,9.49,0,0,1,.47,2l2.26-.3a11.72,11.72,0,0,0-.59-2.42Z" transform="translate(-4.1 -26.2)"/><path class="cls-5" d="M136.09,96.13a1.13,1.13,0,0,1-.53-2.19,1.13,1.13,0,1,1,.53,2.19Z" transform="translate(-4.1 -26.2)"/><path class="cls-4" d="M135,98.1a8.91,8.91,0,0,1-.33,2l2.2.6a11.93,11.93,0,0,0,.4-2.45Z" transform="translate(-4.1 -26.2)"/><path class="cls-5" d="M135.8,100.38a1.13,1.13,0,0,1,.37-2.22,1.13,1.13,0,1,1-.37,2.22Z" transform="translate(-4.1 -26.2)"/><path class="cls-4" d="M134.06,101.78a9,9,0,0,1-1.07,1.7l1.78,1.41a11,11,0,0,0,1.33-2.1Z" transform="translate(-4.1 -26.2)"/><path class="cls-5" d="M133.88,104.19a1.2,1.2,0,0,1-.31-1.53,1.18,1.18,0,0,1,1.51-.37,1.13,1.13,0,1,1-1.2,1.9Z" transform="translate(-4.1 -26.2)"/><path class="cls-4" d="M131.73,104.8a9.7,9.7,0,0,1-1.65,1.14l1.09,2a11.11,11.11,0,0,0,2-1.42Z" transform="translate(-4.1 -26.2)"/><path class="cls-5" d="M130.62,106.94a1.13,1.13,0,0,1,1.85-1.28,1.13,1.13,0,1,1-1.85,1.28Z" transform="translate(-4.1 -26.2)"/><path class="cls-4" d="M128.4,106.66a9.71,9.71,0,0,1-2,.42l.29,2.26a13.12,13.12,0,0,0,2.41-.51Z" transform="translate(-4.1 -26.2)"/><path class="cls-5" d="M126.55,108.21a1.13,1.13,0,0,1,2.2-.47,1.13,1.13,0,1,1-2.2.47Z" transform="translate(-4.1 -26.2)"/><path class="cls-4" d="M123.15,111.8a11.12,11.12,0,0,1,.31,2l2.27-.12a12.71,12.71,0,0,0-.37-2.43Z" transform="translate(-4.1 -26.2)"/><path class="cls-5" d="M124.6,113.76a1.12,1.12,0,0,1-.35-2.22,1.13,1.13,0,1,1,.35,2.22Z" transform="translate(-4.1 -26.2)"/><path class="cls-4" d="M123.38,115.64a8.85,8.85,0,0,1-.49,2l2.14.78a11.13,11.13,0,0,0,.6-2.42Z" transform="translate(-4.1 -26.2)"/><path class="cls-5" d="M124,118a1.13,1.13,0,0,1,.55-2.18A1.13,1.13,0,1,1,124,118Z" transform="translate(-4.1 -26.2)"/><path class="cls-4" d="M122.11,119.23a9,9,0,0,1-1.21,1.61l1.66,1.55a11.28,11.28,0,0,0,1.5-2Z" transform="translate(-4.1 -26.2)"/><path class="cls-5" d="M121.73,121.61a1.18,1.18,0,0,1-.18-1.54,1.19,1.19,0,0,1,1.54-.25,1.13,1.13,0,1,1-1.36,1.79Z" transform="translate(-4.1 -26.2)"/><path class="cls-4" d="M119.54,122.05a10.38,10.38,0,0,1-1.74,1l.93,2.07a12.76,12.76,0,0,0,2.15-1.24Z" transform="translate(-4.1 -26.2)"/><path class="cls-5" d="M118.26,124.09a1.13,1.13,0,0,1,1.95-1.12,1.13,1.13,0,1,1-1.95,1.12Z" transform="translate(-4.1 -26.2)"/><path class="cls-4" d="M116.07,123.64a9.5,9.5,0,0,1-2,.24l0,2.28a12.1,12.1,0,0,0,2.47-.31Z" transform="translate(-4.1 -26.2)"/><path class="cls-5" d="M114.1,125a1.12,1.12,0,0,1,2.23-.27,1.13,1.13,0,1,1-2.23.27Z" transform="translate(-4.1 -26.2)"/><path class="cls-4" d="M112.26,123.75a10.31,10.31,0,0,1-2-.56l-.79,2.13a12.62,12.62,0,0,0,2.36.67Z" transform="translate(-4.1 -26.2)"/><path class="cls-5" d="M109.9,124.26a1.19,1.19,0,0,1,1.38-.74,1.21,1.21,0,0,1,.79,1.35,1.13,1.13,0,1,1-2.17-.61Z" transform="translate(-4.1 -26.2)"/><path class="cls-4" d="M105.22,125.85a10.45,10.45,0,0,1-.67,1.93l2.07,1a12.52,12.52,0,0,0,.8-2.32Z" transform="translate(-4.1 -26.2)"/><path class="cls-5" d="M105.59,128.26a1.13,1.13,0,0,1,.73-2.13,1.13,1.13,0,1,1-.73,2.13Z" transform="translate(-4.1 -26.2)"/><path class="cls-4" d="M103.64,129.35a8.71,8.71,0,0,1-1.34,1.5l1.53,1.69a11.21,11.21,0,0,0,1.65-1.86Z" transform="translate(-4.1 -26.2)"/><path class="cls-5" d="M103.06,131.7a1.13,1.13,0,0,1,1.5-1.68,1.13,1.13,0,1,1-1.5,1.68Z" transform="translate(-4.1 -26.2)"/><path class="cls-4" d="M100.84,131.94a8.66,8.66,0,0,1-1.82.86l.75,2.15a11.56,11.56,0,0,0,2.25-1.06Z" transform="translate(-4.1 -26.2)"/><path class="cls-5" d="M99.4,133.88a1.12,1.12,0,0,1,2-1,1.13,1.13,0,1,1-2,1Z" transform="translate(-4.1 -26.2)"/><path class="cls-4" d="M97.26,133.24a9.67,9.67,0,0,1-2,.09l-.15,2.26a10.92,10.92,0,0,0,2.49-.1Z" transform="translate(-4.1 -26.2)"/><path class="cls-5" d="M95.17,134.46a1.2,1.2,0,0,1,1.08-1.12,1.19,1.19,0,0,1,1.17,1,1.08,1.08,0,0,1-1.07,1.24A1.1,1.1,0,0,1,95.17,134.46Z" transform="translate(-4.1 -26.2)"/><path class="cls-4" d="M93.45,133a9.69,9.69,0,0,1-1.88-.71l-1,2a11.89,11.89,0,0,0,2.33.88Z" transform="translate(-4.1 -26.2)"/><path class="cls-5" d="M91.06,133.34a1.12,1.12,0,0,1,2.1.8,1.13,1.13,0,1,1-2.1-.8Z" transform="translate(-4.1 -26.2)"/><path class="cls-4" d="M90,131.35a10.19,10.19,0,0,1-1.48-1.4l-1.69,1.52a12.48,12.48,0,0,0,1.78,1.69Z" transform="translate(-4.1 -26.2)"/><path class="cls-5" d="M87.7,130.71a1.13,1.13,0,0,1,1.64,1.55,1.13,1.13,0,1,1-1.64-1.55Z" transform="translate(-4.1 -26.2)"/><polygon class="cls-4" points="61.61 97.93 59.41 98.49 58.62 96.36 60.99 95.48 61.61 97.93"/><polygon class="cls-5" points="59.02 97.42 59.06 97.53 59.12 97.63 59.19 97.72 59.26 97.8 59.35 97.88 59.44 97.94 59.54 98 59.64 98.05 59.74 98.11 59.84 98.16 59.95 98.2 60.06 98.22 60.17 98.24 60.28 98.24 60.4 98.23 60.51 98.21 60.62 98.18 60.73 98.13 60.83 98.07 60.92 98 61 97.93 61.08 97.84 61.14 97.75 61.2 97.65 61.25 97.55 61.29 97.44 61.32 97.32 61.34 97.2 61.34 97.08 61.34 96.96 61.33 96.83 61.3 96.7 61.27 96.58 61.22 96.46 61.16 96.35 61.09 96.25 61.02 96.16 60.94 96.07 60.85 95.99 60.76 95.92 60.65 95.89 60.54 95.86 60.42 95.84 60.3 95.83 60.18 95.84 60.05 95.85 59.93 95.88 59.81 95.92 59.69 95.97 59.58 96.03 59.47 96.1 59.38 96.17 59.29 96.26 59.21 96.35 59.14 96.44 59.08 96.54 59.04 96.65 59 96.75 58.97 96.86 58.95 96.97 58.95 97.09 58.96 97.2 58.98 97.31 59.02 97.42"/><polygon class="cls-4" points="44.53 83.88 42.32 83.35 42.61 81.1 45.12 81.42 44.53 83.88"/><polygon class="cls-5" points="42.47 82.22 42.46 82.34 42.46 82.45 42.48 82.56 42.51 82.67 42.55 82.78 42.6 82.88 42.66 82.98 42.73 83.07 42.79 83.17 42.86 83.26 42.94 83.34 43.02 83.42 43.11 83.48 43.21 83.54 43.32 83.58 43.43 83.61 43.54 83.64 43.66 83.64 43.77 83.64 43.88 83.62 43.99 83.59 44.09 83.55 44.2 83.5 44.3 83.44 44.39 83.37 44.47 83.29 44.55 83.2 44.63 83.11 44.69 83 44.74 82.89 44.79 82.77 44.83 82.65 44.85 82.52 44.86 82.4 44.86 82.27 44.85 82.15 44.83 82.03 44.8 81.92 44.76 81.81 44.71 81.7 44.63 81.62 44.54 81.54 44.45 81.47 44.34 81.41 44.23 81.36 44.12 81.31 43.99 81.28 43.87 81.26 43.74 81.25 43.61 81.25 43.49 81.26 43.37 81.28 43.25 81.32 43.14 81.36 43.04 81.41 42.94 81.47 42.85 81.54 42.76 81.62 42.69 81.7 42.62 81.8 42.57 81.89 42.52 82 42.49 82.11 42.47 82.22"/><polygon class="cls-4" points="35.93 63.49 34.22 62 35.53 60.14 37.59 61.59 35.93 63.49"/><polygon class="cls-5" points="34.87 61.06 34.81 61.16 34.76 61.27 34.73 61.37 34.7 61.48 34.69 61.6 34.68 61.71 34.69 61.82 34.71 61.94 34.72 62.05 34.74 62.16 34.77 62.27 34.81 62.38 34.86 62.48 34.92 62.57 34.99 62.66 35.08 62.74 35.17 62.81 35.27 62.88 35.37 62.92 35.47 62.96 35.58 62.98 35.7 63 35.81 63 35.92 62.99 36.04 62.97 36.15 62.94 36.26 62.9 36.37 62.85 36.48 62.79 36.58 62.72 36.67 62.63 36.76 62.54 36.84 62.44 36.91 62.33 36.97 62.22 37.02 62.11 37.05 62 37.08 61.88 37.09 61.76 37.1 61.65 37.07 61.54 37.02 61.43 36.97 61.32 36.91 61.22 36.84 61.12 36.75 61.03 36.66 60.94 36.56 60.86 36.45 60.79 36.34 60.73 36.22 60.69 36.11 60.65 35.99 60.63 35.87 60.62 35.75 60.61 35.64 60.62 35.52 60.64 35.41 60.67 35.31 60.71 35.21 60.76 35.11 60.82 35.02 60.89 34.95 60.97 34.87 61.06"/><polygon class="cls-4" points="37.8 41.44 36.97 39.32 38.99 38.28 40.15 40.52 37.8 41.44"/><polygon class="cls-5" points="37.98 38.8 37.88 38.86 37.79 38.93 37.71 39.01 37.64 39.09 37.57 39.18 37.52 39.28 37.47 39.39 37.44 39.5 37.39 39.6 37.35 39.71 37.33 39.82 37.32 39.93 37.31 40.04 37.33 40.16 37.35 40.27 37.38 40.38 37.43 40.48 37.49 40.58 37.56 40.67 37.64 40.76 37.72 40.83 37.82 40.89 37.92 40.95 38.02 40.99 38.13 41.03 38.24 41.06 38.36 41.07 38.48 41.08 38.6 41.07 38.73 41.05 38.85 41.02 38.97 40.98 39.09 40.93 39.2 40.87 39.3 40.8 39.4 40.72 39.48 40.64 39.56 40.55 39.63 40.45 39.68 40.35 39.71 40.23 39.72 40.12 39.72 40 39.72 39.88 39.7 39.76 39.67 39.64 39.63 39.52 39.57 39.4 39.51 39.29 39.43 39.19 39.35 39.09 39.27 39.01 39.17 38.93 39.08 38.86 38.97 38.81 38.87 38.76 38.76 38.73 38.65 38.7 38.53 38.69 38.42 38.69 38.31 38.7 38.2 38.72 38.09 38.75 37.98 38.8"/><polygon class="cls-4" points="49.69 22.78 49.94 20.52 52.22 20.54 52.19 23.05 49.69 22.78"/><polygon class="cls-5" points="51.08 20.53 50.96 20.53 50.85 20.55 50.74 20.58 50.64 20.62 50.54 20.67 50.44 20.74 50.35 20.81 50.27 20.89 50.18 20.96 50.1 21.04 50.03 21.13 49.96 21.22 49.91 21.32 49.87 21.42 49.84 21.53 49.82 21.65 49.81 21.76 49.82 21.88 49.84 21.99 49.87 22.1 49.91 22.2 49.96 22.3 50.02 22.4 50.09 22.49 50.18 22.57 50.27 22.64 50.36 22.71 50.47 22.77 50.58 22.82 50.69 22.86 50.82 22.9 50.94 22.92 51.07 22.92 51.2 22.92 51.32 22.91 51.44 22.88 51.55 22.85 51.66 22.8 51.77 22.75 51.87 22.68 51.94 22.59 52.01 22.5 52.06 22.39 52.11 22.29 52.15 22.17 52.18 22.05 52.2 21.93 52.2 21.8 52.2 21.67 52.18 21.54 52.16 21.42 52.12 21.3 52.07 21.19 52.02 21.09 51.95 20.99 51.88 20.9 51.8 20.82 51.71 20.75 51.62 20.68 51.52 20.63 51.42 20.59 51.31 20.55 51.2 20.53 51.08 20.53"/><polygon class="cls-4" points="68.9 11.79 70.17 9.91 72.17 10.98 70.98 13.2 68.9 11.79"/><polygon class="cls-5" points="71.17 10.45 71.07 10.4 70.96 10.36 70.85 10.34 70.74 10.32 70.63 10.32 70.51 10.34 70.4 10.36 70.29 10.39 70.18 10.41 70.07 10.44 69.96 10.49 69.86 10.54 69.77 10.6 69.68 10.67 69.6 10.76 69.53 10.85 69.47 10.95 69.43 11.05 69.39 11.16 69.37 11.27 69.36 11.38 69.36 11.5 69.37 11.61 69.39 11.72 69.42 11.83 69.47 11.94 69.52 12.05 69.58 12.15 69.66 12.24 69.74 12.34 69.84 12.42 69.94 12.5 70.05 12.56 70.16 12.62 70.28 12.66 70.4 12.7 70.51 12.72 70.63 12.73 70.75 12.73 70.86 12.72 70.97 12.68 71.08 12.62 71.17 12.56 71.27 12.48 71.36 12.4 71.44 12.31 71.51 12.2 71.58 12.09 71.64 11.98 71.68 11.86 71.71 11.74 71.73 11.62 71.74 11.5 71.74 11.38 71.73 11.26 71.71 11.15 71.67 11.04 71.63 10.94 71.58 10.84 71.52 10.74 71.44 10.65 71.36 10.58 71.27 10.51 71.17 10.45"/><polygon class="cls-4" points="91.01 11 93.02 9.93 94.3 11.81 92.2 13.24 91.01 11"/><polygon class="cls-5" points="93.66 10.88 93.59 10.78 93.51 10.7 93.42 10.63 93.33 10.56 93.23 10.51 93.12 10.47 93.01 10.44 92.9 10.42 92.79 10.38 92.68 10.36 92.56 10.35 92.45 10.35 92.34 10.36 92.23 10.38 92.12 10.42 92.01 10.47 91.92 10.53 91.82 10.6 91.74 10.68 91.67 10.77 91.61 10.86 91.56 10.96 91.51 11.06 91.48 11.18 91.46 11.29 91.45 11.41 91.44 11.53 91.45 11.64 91.47 11.77 91.51 11.89 91.55 12.01 91.61 12.12 91.67 12.23 91.75 12.34 91.83 12.43 91.92 12.51 92.01 12.59 92.11 12.65 92.22 12.71 92.32 12.75 92.44 12.77 92.56 12.76 92.67 12.75 92.79 12.73 92.91 12.7 93.03 12.65 93.14 12.6 93.25 12.53 93.35 12.45 93.45 12.36 93.53 12.27 93.61 12.18 93.67 12.07 93.72 11.97 93.77 11.86 93.8 11.75 93.83 11.63 93.84 11.52 93.84 11.41 93.82 11.3 93.8 11.19 93.77 11.08 93.72 10.97 93.66 10.88"/><polygon class="cls-4" points="110.98 20.55 113.26 20.53 113.51 22.79 111.01 23.07 110.98 20.55"/><polygon class="cls-5" points="113.38 21.66 113.36 21.55 113.33 21.44 113.29 21.33 113.24 21.23 113.17 21.14 113.1 21.05 113.02 20.97 112.93 20.9 112.85 20.82 112.76 20.75 112.66 20.69 112.56 20.64 112.46 20.59 112.35 20.56 112.24 20.55 112.12 20.54 112 20.55 111.89 20.57 111.78 20.6 111.68 20.64 111.58 20.7 111.49 20.76 111.4 20.84 111.32 20.92 111.25 21.01 111.18 21.1 111.13 21.21 111.08 21.32 111.04 21.43 111.02 21.56 111 21.68 111 21.81 111 21.94 111.02 22.06 111.05 22.18 111.09 22.3 111.14 22.41 111.19 22.51 111.26 22.61 111.33 22.7 111.43 22.76 111.54 22.81 111.64 22.86 111.76 22.89 111.88 22.92 112 22.93 112.13 22.94 112.26 22.93 112.38 22.91 112.51 22.88 112.62 22.84 112.73 22.79 112.84 22.73 112.94 22.66 113.02 22.58 113.11 22.5 113.18 22.41 113.24 22.32 113.29 22.22 113.33 22.11 113.36 22 113.38 21.89 113.39 21.78 113.38 21.66"/><polygon class="cls-4" points="124.2 38.3 126.22 39.34 125.39 41.46 123.04 40.54 124.2 38.3"/><polygon class="cls-5" points="125.81 40.4 125.84 40.29 125.86 40.18 125.87 40.06 125.87 39.95 125.86 39.84 125.83 39.73 125.8 39.62 125.75 39.52 125.72 39.41 125.67 39.3 125.62 39.2 125.56 39.11 125.48 39.02 125.4 38.95 125.31 38.88 125.21 38.82 125.1 38.77 124.99 38.73 124.88 38.71 124.77 38.7 124.66 38.7 124.54 38.72 124.43 38.74 124.32 38.78 124.22 38.82 124.11 38.88 124.02 38.95 123.92 39.02 123.83 39.11 123.75 39.2 123.68 39.31 123.62 39.42 123.56 39.54 123.52 39.66 123.49 39.78 123.47 39.9 123.46 40.02 123.47 40.13 123.48 40.25 123.5 40.37 123.56 40.47 123.63 40.56 123.7 40.65 123.79 40.74 123.88 40.81 123.99 40.88 124.1 40.95 124.22 41 124.34 41.04 124.46 41.07 124.58 41.09 124.71 41.09 124.83 41.09 124.94 41.07 125.06 41.05 125.17 41.01 125.27 40.97 125.37 40.91 125.47 40.85 125.55 40.77 125.63 40.69 125.7 40.6 125.76 40.51 125.81 40.4"/><polygon class="cls-4" points="127.66 60.15 128.97 62.01 127.25 63.5 125.6 61.6 127.66 60.15"/><polygon class="cls-5" points="128.11 62.76 128.19 62.68 128.27 62.59 128.33 62.49 128.38 62.39 128.42 62.29 128.45 62.18 128.47 62.06 128.47 61.95 128.5 61.84 128.5 61.72 128.5 61.61 128.49 61.5 128.46 61.39 128.43 61.28 128.38 61.18 128.32 61.08 128.25 60.99 128.16 60.91 128.08 60.84 127.98 60.77 127.88 60.72 127.78 60.68 127.67 60.65 127.55 60.63 127.44 60.63 127.32 60.63 127.2 60.64 127.08 60.66 126.97 60.7 126.85 60.75 126.74 60.8 126.63 60.87 126.53 60.95 126.44 61.04 126.35 61.13 126.28 61.23 126.22 61.33 126.16 61.44 126.12 61.55 126.09 61.66 126.09 61.77 126.11 61.89 126.13 62.01 126.17 62.12 126.22 62.23 126.28 62.34 126.34 62.45 126.42 62.55 126.51 62.64 126.61 62.73 126.71 62.8 126.81 62.86 126.92 62.91 127.03 62.95 127.15 62.98 127.26 63 127.38 63.01 127.49 63.01 127.6 63 127.71 62.97 127.82 62.94 127.92 62.89 128.02 62.83 128.11 62.76"/><polygon class="cls-4" points="120.56 81.11 120.85 83.36 118.64 83.89 118.05 81.43 120.56 81.11"/><polygon class="cls-5" points="119.75 83.63 119.86 83.59 119.96 83.55 120.06 83.49 120.15 83.43 120.24 83.35 120.31 83.27 120.38 83.18 120.44 83.08 120.51 82.99 120.57 82.89 120.62 82.79 120.66 82.69 120.69 82.58 120.71 82.46 120.72 82.35 120.71 82.23 120.69 82.12 120.65 82.01 120.61 81.91 120.55 81.81 120.48 81.72 120.41 81.63 120.33 81.55 120.24 81.48 120.14 81.42 120.03 81.37 119.92 81.33 119.81 81.29 119.69 81.27 119.56 81.26 119.44 81.26 119.31 81.27 119.18 81.29 119.06 81.32 118.94 81.37 118.83 81.42 118.73 81.48 118.63 81.55 118.54 81.63 118.46 81.71 118.41 81.82 118.37 81.93 118.34 82.04 118.32 82.16 118.31 82.28 118.31 82.41 118.32 82.53 118.35 82.66 118.38 82.78 118.43 82.9 118.48 83.01 118.55 83.12 118.62 83.21 118.7 83.3 118.78 83.38 118.88 83.45 118.97 83.51 119.08 83.56 119.18 83.6 119.29 83.63 119.4 83.65 119.52 83.65 119.63 83.65 119.75 83.63"/><polygon class="cls-4" points="104.55 96.38 103.76 98.51 101.56 97.95 102.18 95.5 104.55 96.38"/><polygon class="cls-5" points="102.66 98.23 102.77 98.25 102.89 98.26 103 98.26 103.11 98.24 103.22 98.22 103.33 98.18 103.43 98.13 103.53 98.07 103.63 98.03 103.73 97.97 103.82 97.9 103.91 97.83 103.98 97.74 104.05 97.65 104.11 97.55 104.15 97.45 104.19 97.33 104.21 97.22 104.22 97.11 104.21 97 104.2 96.89 104.17 96.78 104.13 96.67 104.08 96.56 104.03 96.46 103.96 96.37 103.88 96.28 103.79 96.2 103.7 96.12 103.59 96.05 103.48 95.99 103.36 95.94 103.24 95.9 103.12 95.88 103 95.86 102.87 95.86 102.75 95.86 102.64 95.88 102.52 95.91 102.41 95.95 102.32 96.01 102.23 96.09 102.15 96.18 102.08 96.27 102.01 96.38 101.95 96.49 101.91 96.6 101.87 96.73 101.84 96.85 101.83 96.98 101.83 97.1 101.83 97.22 101.85 97.34 101.88 97.46 101.92 97.57 101.97 97.67 102.03 97.77 102.09 97.86 102.17 97.95 102.25 98.03 102.34 98.09 102.44 98.15 102.55 98.2 102.66 98.23"/><polygon class="cls-4" points="83.27 102.44 81.58 103.96 79.89 102.44 81.58 100.56 83.27 102.44"/><polygon class="cls-5" points="80.73 103.2 80.83 103.27 80.92 103.33 81.03 103.38 81.13 103.42 81.24 103.45 81.35 103.46 81.47 103.47 81.58 103.46 81.7 103.47 81.81 103.46 81.92 103.45 82.03 103.42 82.14 103.38 82.24 103.33 82.34 103.27 82.43 103.2 82.51 103.12 82.58 103.03 82.64 102.93 82.69 102.83 82.73 102.72 82.76 102.61 82.77 102.5 82.78 102.39 82.77 102.27 82.75 102.16 82.73 102.04 82.69 101.92 82.64 101.81 82.58 101.7 82.51 101.6 82.43 101.5 82.34 101.41 82.24 101.33 82.14 101.25 82.03 101.19 81.92 101.14 81.81 101.1 81.7 101.08 81.58 101.06 81.47 101.07 81.35 101.1 81.24 101.14 81.13 101.19 81.03 101.25 80.92 101.33 80.83 101.41 80.74 101.5 80.66 101.6 80.58 101.7 80.52 101.81 80.47 101.92 80.44 102.04 80.41 102.15 80.39 102.27 80.39 102.39 80.39 102.5 80.41 102.61 80.44 102.72 80.47 102.83 80.52 102.93 80.58 103.03 80.65 103.12 80.73 103.2"/><path class="cls-6" d="M104.05,68.67a16.82,16.82,0,0,1,8.87,5.56,13.83,13.83,0,0,1,3.21,8.89A15.85,15.85,0,0,1,109.63,96a6.68,6.68,0,0,1,.63,2.87,9.55,9.55,0,0,1-3.8,7.86q0,.63-.72.63l-.25-.13c0,.48-.2.72-.59.72h-.47a2,2,0,0,1,.21.7c0,.32-.18.48-.55.48a.61.61,0,0,1-.42-.21c0,.42-.17.64-.51.64s-.43-.26-.63-.76c-.17.42-.42.63-.76.63l-.25-.17a.73.73,0,0,1-.72.51.57.57,0,0,1-.51-.26,20.62,20.62,0,0,1-4.56.43,16.24,16.24,0,0,1-4.61-.68v.59a8.86,8.86,0,0,1-2.55,6.34,8.2,8.2,0,0,1-6.11,2.66,9.22,9.22,0,0,1-6.56-2.43,8.32,8.32,0,0,1-2.6-6.4v-.59a13.27,13.27,0,0,1-5.61,1.18,13.31,13.31,0,0,1-8.93-3,9.47,9.47,0,0,1-3.5-7.6,12.74,12.74,0,0,1,2.58-7.56,19.86,19.86,0,0,1,7.3-6,10.13,10.13,0,0,1-2.76-14.81,12.88,12.88,0,0,1,5.55-4.16,12.62,12.62,0,0,1-2.49-7.77q0-6.59,6.24-10.77a25.89,25.89,0,0,1,14.78-4.18q8.75,0,14.65,4.33A13.24,13.24,0,0,1,107,60.27,13,13,0,0,1,104.05,68.67ZM88.89,94.84A10.74,10.74,0,0,1,88,91.07a7.16,7.16,0,0,1,.38-2.24c-.54-.12-.8-.26-.8-.43A1.6,1.6,0,0,0,88.46,87a24.51,24.51,0,0,0-5.11-1.73,20.46,20.46,0,0,1-11,2.78,16.54,16.54,0,0,1-6.17-1,19.54,19.54,0,0,0-7.14,5.75A12,12,0,0,0,56.44,100a9.45,9.45,0,0,0,3,7.38c2,1.8,4.74,2.69,8.26,2.69a14,14,0,0,0,5.7-1.14,9.3,9.3,0,0,1,1.86-4.55,4.07,4.07,0,0,1,3.17-1.78c.65,0,1,.33,1,1a4.53,4.53,0,0,1-1.46,2.73,14.46,14.46,0,0,1-3.82,3v.51a7.6,7.6,0,0,0,2.35,5.89,8.66,8.66,0,0,0,6.11,2.16,8,8,0,0,0,5.88-2.37,7.63,7.63,0,0,0,2.37-5.57v-.77c-1.39-.62-2.08-1-2.08-1.14l.17-.17a12.32,12.32,0,0,0,1.82.85,9.06,9.06,0,0,0-4.4-6.63l-.29-.21.17-.17c.39,0,1.23.62,2.51,1.85a8.45,8.45,0,0,1,2.35,5.24,13.4,13.4,0,0,0,4.78.72,16.74,16.74,0,0,0,4.48-.42l.51-.47.55.17a.62.62,0,0,1,.68-.5l.34.08a2.64,2.64,0,0,1-.17-.83c0-.37.14-.56.42-.56a.81.81,0,0,1,.55.29c0-.45.12-.67.38-.67s.52.33.72,1c.14-.54.35-.8.63-.8l.34.08a.69.69,0,0,1,.68-.59l.25-.08a8.82,8.82,0,0,0,3.55-7.27,9.35,9.35,0,0,0-.5-2.62A16.93,16.93,0,0,1,100,99.43a18,18,0,0,1-2.08-.09,15.5,15.5,0,0,1,.17,2q0,3.94-2.24,4c-.54,0-.81-.23-.81-.68s.24-.89.72-.89a.44.44,0,0,1,.51.49c0,.3.14.44.42.44s.44-.27.65-.8a7.33,7.33,0,0,0,.32-2.5,18.71,18.71,0,0,0-.17-2q-6.25-.77-8.49-4.15ZM89,66V71a16.27,16.27,0,0,1,9.59-3,22.92,22.92,0,0,1,4.94.42,12.33,12.33,0,0,0,3-8.22q0-6.24-6-10.33a25.31,25.31,0,0,0-14.64-4.09,24.9,24.9,0,0,0-13.94,4q-6,3.94-6,10a12.35,12.35,0,0,0,2.63,7.6,6.15,6.15,0,0,1,2.08-.42,3.64,3.64,0,0,1,2.15.61,1.79,1.79,0,0,1,.87,1.52c0,.64-.45,1-1.36,1A5.31,5.31,0,0,1,68.12,68a10.58,10.58,0,0,0-4.87,3.78,9.62,9.62,0,0,0-1.87,5.72q0,6,4.57,8.58a24.48,24.48,0,0,1,10-2.16,34.84,34.84,0,0,1,7.35.76,15.72,15.72,0,0,0,5-4.81l.21-.3V72.86l-1-.34a14.28,14.28,0,0,0-2.07,2.53L85.17,75A15.15,15.15,0,0,1,87,72.43c-1.26-.45-1.9-.76-1.9-.93l.17-.17a18,18,0,0,0,2.07.85,5.46,5.46,0,0,1,1.14-.85V65.89c0-.43.09-.64.26-.64S89,65.49,89,66Zm-.49,0A14.43,14.43,0,0,1,83.4,63l-.6-.39c-.5,0-1.41.76-2.7,2.28A9,9,0,0,0,78.16,71a6,6,0,0,0,1.77,4.54,6.92,6.92,0,0,0,5,1.71,9.38,9.38,0,0,0,3.55-.89l.51-.17a15.87,15.87,0,0,1,6.85-1.73A7.93,7.93,0,0,1,102,76.81a8.1,8.1,0,0,1,2.18,5.72A7.8,7.8,0,0,1,102,87.85a21.72,21.72,0,0,1-6.79,4.61l-.42.17C92,94,90.28,94.8,89.55,95.08l-.51.08a25.54,25.54,0,0,0-5,2.11,11.74,11.74,0,0,0-3,2.66l-.25-.16c0-.39.6-1.12,1.81-2.2,0-.42-.86-1.08-2.6-2a17,17,0,0,0-7.51-1.33,12.34,12.34,0,0,0-6.84,2c-2.1,1.36-3.15,3-3.15,4.87a3.71,3.71,0,0,0,1.26,2.92,4.9,4.9,0,0,0,3.34,1.11A6.18,6.18,0,0,0,72,103.06l.29-.3.09.26q0,.42-1.5,1.56A6.22,6.22,0,0,1,67,105.72a5.2,5.2,0,0,1-3.55-1.21A4.26,4.26,0,0,1,62,101.1q0-4.27,4.27-7.07a17.57,17.57,0,0,1,9.86-2.8q7.62,0,11.09,3.8l.34.3L89,94.82l.42-.08a36.5,36.5,0,0,0,5.2-2.54L95,92q4.14-2.81,4.14-8.51a7.26,7.26,0,0,0-2-5.17A6.8,6.8,0,0,0,92,76.24a7.38,7.38,0,0,0-2.92.54l-.51.09c-.42.14-1.46.61-3.11,1.39a11.43,11.43,0,0,1-5,1.19A6.29,6.29,0,0,1,74,73c0-2.72,1.31-5.26,3.91-7.62a16.27,16.27,0,0,1,3.79-2.67Q89.23,59,91.3,57l.67-.67.17.17c0,.41-1.31,1.53-3.93,3.33,0,.32.59.84,1.79,1.59a10,10,0,0,0,5.27,1.12,4.78,4.78,0,0,0,3.43-1.16,3.71,3.71,0,0,0,1.21-2.77,7.53,7.53,0,0,0-.17-1.27,3.11,3.11,0,0,1,.51,1.4,6.44,6.44,0,0,1-3,5.26,10.46,10.46,0,0,1-6.4,2.21,12.36,12.36,0,0,1-1.9-.17Zm-12.23,15,.17.17c0,.2-.52.57-1.56,1.12a8.87,8.87,0,0,1-4.14.83,6,6,0,0,1-4-1.38,4.37,4.37,0,0,1-1.65-3.5,4.92,4.92,0,0,1,1.66-3.78,5.34,5.34,0,0,1,3.68-1.52c1.48,0,2.22.48,2.22,1.43,0,.48-.25.72-.76.72s-.8-.32-.8-1c0-.45-.38-.68-1.14-.68A4.18,4.18,0,0,0,67,74.69a4.72,4.72,0,0,0-1.37,3.55,3.85,3.85,0,0,0,1.52,3.09,5.36,5.36,0,0,0,3.51,1.24q3.75,0,5.45-1.52Zm6.3,4.27a40.73,40.73,0,0,0-6.46-.42,22.58,22.58,0,0,0-8.75,1.82,13.25,13.25,0,0,0,5.11,1A22.94,22.94,0,0,0,82.55,85.19ZM68.82,67.83a6.36,6.36,0,0,0,1.69,1.33,4.39,4.39,0,0,0,1.69.27.44.44,0,0,0,.51-.5,1.28,1.28,0,0,0-.6-1,2.28,2.28,0,0,0-1.39-.44A5.53,5.53,0,0,0,68.82,67.83ZM89,51.1a10.08,10.08,0,0,1,4.48,2.14,4.43,4.43,0,0,1,1.73,3.36c0,1.57-.43,2.36-1.29,2.36-.55,0-.82-.18-.82-.53s.41-.49,1.23-.49c.33,0,.5-.41.5-1.23a4.24,4.24,0,0,0-1.6-3.19,9.07,9.07,0,0,0-4.35-2l-.43.26-.46-.3-.64-.13-.44.38c-.2,0-.39-.15-.57-.46h-.51l-.48.46-.57-.46-2.45.29a.89.89,0,0,0,.88.6h.68a3.19,3.19,0,0,1-1.31.59,2.59,2.59,0,0,1-2-.68c0,.51-.24.76-.7.76l-.66-.25-.16.08c0,.4-.14.59-.42.59l-.59-.12-.17.12c0,.34-.18.51-.55.51l-.16-.08a10.55,10.55,0,0,0-3.34,3.1,6.25,6.25,0,0,0-1.2,3.44A11.22,11.22,0,0,0,73,62.67c-.17,0-.33-.24-.48-.73a4.65,4.65,0,0,1-.24-1.42c0-2.82,1.55-5.2,4.65-7.16,0-.41.17-.61.51-.61h.46c.11-.45.31-.68.59-.68a.61.61,0,0,1,.43.17l.25-.08c.12-.57.36-.85.74-.85l.61.3.21-.17a1.86,1.86,0,0,1,.87-1A2.38,2.38,0,0,1,82.8,50c.59,0,.89.09.89.26a1.63,1.63,0,0,0-1.39.84,15.46,15.46,0,0,1,2.32-.27.87.87,0,0,1,.74-.53l.61.5h.42c.14-.28.31-.42.53-.42l.57.55.68.09.4-.26C88.75,50.76,88.89,50.87,89,51.1ZM74.23,108.68a13.68,13.68,0,0,0,3.44-2.7,4,4,0,0,0,1.2-2.2q0-.72-.84-.72a3.26,3.26,0,0,0-2.18,1.37A8.23,8.23,0,0,0,74.23,108.68ZM88.46,86.42V80.16a16.47,16.47,0,0,1-4.52,4.69A25.27,25.27,0,0,1,88.46,86.42Zm0-13.94V71.8a2,2,0,0,0-.71.51A6.89,6.89,0,0,0,88.46,72.48Zm6,19.72a20.46,20.46,0,0,0-5.19-4.77l0,.38a1.16,1.16,0,0,0,.42.68c0,.14-.28.25-.85.33a7.91,7.91,0,0,0-.42,2.37,9.88,9.88,0,0,0,.89,3.55l.17.34c1.4,2,4,3.32,7.9,3.8a16.58,16.58,0,0,0-2.62-6.25Zm8.75-23.28a21,21,0,0,0-4.69-.5,17.12,17.12,0,0,0-9.59,3v1.09a16.05,16.05,0,0,0,3.63.42,17.39,17.39,0,0,0,6-1A11.39,11.39,0,0,0,103.25,68.92ZM89,78.71a15.34,15.34,0,0,1,.85-1.52A4.75,4.75,0,0,1,89,79.38v7.16l.17.17a5.78,5.78,0,0,1,5.11-2.66,4,4,0,0,1,2.49.68,2,2,0,0,1,.89,1.6c0,1-.37,1.48-1.11,1.48q-.66,0-.66-.72a.47.47,0,0,1,.42-.48.5.5,0,0,0,.42-.53c0-1.1-.89-1.65-2.66-1.65A5.23,5.23,0,0,0,89.44,87a22.72,22.72,0,0,1,5.44,5l.26.43q2.43,4.22,2.65,6.42c.29,0,.65,0,1.08,0s.78,0,1,0a14.29,14.29,0,0,0,4.75-.88,15.28,15.28,0,0,0,4.42-2.41,7.9,7.9,0,0,0-4.14-4.06,6.55,6.55,0,0,1-3.38,1.1c-1.16,0-1.73-.29-1.73-.86a1.08,1.08,0,0,1,.65-1,3.09,3.09,0,0,1,1.5-.37,10.94,10.94,0,0,1,3,.51,10,10,0,0,0,3.13-3.36,8.16,8.16,0,0,0,1.18-4.12l-.34.17c-.19,0-.31,0-.35-.12a2,2,0,0,1-.07-.72c0-.59.11-.89.33-.89l.33.21q-.87-6.37-6.66-8.11l-.42-.17.17-.17c1,0,2.38.64,4.11,1.9s2.8,3.44,3.21,6.51c0-.14.13-.21.38-.21s.33.3.33.91-.09.86-.26.86a.5.5,0,0,1-.38-.17,10.46,10.46,0,0,1-4.39,7.82,8.74,8.74,0,0,1,4.05,4,16.42,16.42,0,0,0,4.15-5.64A15.85,15.85,0,0,0,115,83.12a13.68,13.68,0,0,0-2.94-8.55,16,16,0,0,0-8.31-5.47,14.69,14.69,0,0,1-11.09,4.35A15.29,15.29,0,0,1,89,73Zm15.59,12.72a11.48,11.48,0,0,0-2.45-.45q-1.23,0-1.23.69c0,.38.38.58,1.14.58A6.22,6.22,0,0,0,104.56,91.43Z" transform="translate(-4.1 -26.2)"/><path class="cls-7" d="M152,105.71l-6.46,14.52a2.54,2.54,0,0,1-3.3,1.3c-9.48-4-27-7.5-51.74,2.9-12.21,5.14-25.06,6.85-36.74,6.85a138.86,138.86,0,0,1-32.3-4,2.53,2.53,0,0,1-1.87-3l3.59-15.57a2.54,2.54,0,0,1,3.07-1.89c11.62,2.84,35.68,6.86,56.09-1.73,31.35-13.18,54.73-8.49,68.33-2.71A2.52,2.52,0,0,1,152,105.71Z" transform="translate(-4.1 -26.2)"/><path class="cls-8" d="M152,105.71l-6.46,14.52a2.54,2.54,0,0,1-3.3,1.3c-9.48-4-27-7.5-51.74,2.9-12.21,5.14-25.06,6.85-36.74,6.85a138.86,138.86,0,0,1-32.3-4,2.53,2.53,0,0,1-1.87-3l3.59-15.57a2.54,2.54,0,0,1,3.07-1.89c11.62,2.84,35.68,6.86,56.09-1.73,31.35-13.18,54.73-8.49,68.33-2.71A2.52,2.52,0,0,1,152,105.71Z" transform="translate(-4.1 -26.2)"/><text class="cls-9" transform="translate(33.76 96.93) rotate(9.34)">S</text><text class="cls-9" transform="translate(44.32 98.56) rotate(2.81)">A</text><text class="cls-9" transform="matrix(1, -0.1, 0.1, 1, 56.91, 99.07)">N</text><text class="cls-9" transform="translate(71.35 97.41) rotate(-16.72)">D</text><text class="cls-9" transform="translate(83.9 93.04) rotate(-22.47)">I</text><text class="cls-9" transform="translate(89.84 90.53) rotate(-15.24)">C</text><text class="cls-9" transform="translate(101.12 87.63) rotate(-6.88)">A</text><text class="cls-9" transform="translate(112.35 86.38) rotate(0.19)">K</text><text class="cls-9" transform="translate(123.91 86.54) rotate(6.8)">E</text><polygon class="cls-2" points="18.39 85.35 23.52 86.94 18.19 86.33 18.39 85.35"/><polygon class="cls-2" points="17.78 88.28 22.91 89.87 17.57 89.26 17.78 88.28"/><polygon class="cls-2" points="16.09 96.29 21.22 97.88 15.88 97.27 16.09 96.29"/><polygon class="cls-2" points="146.33 83.03 142.21 80.82 146.71 82.11 146.33 83.03"/><polygon class="cls-2" points="143.88 88.19 139.76 85.97 144.25 87.26 143.88 88.19"/><polygon class="cls-2" points="146.62 82.16 142.5 79.95 147 81.23 146.62 82.16"/><polygon class="cls-2" points="142.61 90.7 138.49 88.49 142.98 89.78 142.61 90.7"/></svg>