<?xml version="1.0" encoding="utf-8"?>
<!-- Generator: Adobe Illustrator 22.0.1, SVG Export Plug-In . SVG Version: 6.00 Build 0)  -->
<svg version="1.1" id="Layer_1" xmlns="http://www.w3.org/2000/svg" xmlns:xlink="http://www.w3.org/1999/xlink" x="0px" y="0px"
	 viewBox="0 0 1102.4 328.1" style="enable-background:new 0 0 1102.4 328.1;" xml:space="preserve">
<style type="text/css">
	.st0{fill:#606060;}
</style>
<path class="st0" d="M8,115.4"/>
<polygon class="st0" points="399.3,123 199.7,246 0,123 199.7,0 "/>
<rect x="361.3" y="123" class="st0" width="38" height="145.7"/>
<polygon class="st0" points="349.3,176.6 199.7,268.8 50,176.6 49.9,176.6 49.9,235.8 199.7,328.1 349.5,235.8 349.5,176.6 "/>
<g>
	<path class="st0" d="M455.3,105.4h10.2v62.3H504v8.8h-48.7V105.4z"/>
	<path class="st0" d="M567.3,167.7v8.8h-51.7v-71.2h50.2v8.8h-40.1v21.9h35.7v8.6h-35.7v23H567.3z"/>
	<path class="st0" d="M629.1,158.8h-37.8l-7.8,17.8H573l32.2-71.2h10.1l32.3,71.2H637L629.1,158.8z M625.6,150.6l-15.4-34.9
		l-15.4,34.9H625.6z"/>
	<path class="st0" d="M705.8,176.6l-15.4-21.9c-1.9,0.1-3.4,0.2-4.5,0.2h-17.6v21.7h-10.2v-71.2H686c9.2,0,16.5,2.2,21.8,6.6
		c5.3,4.4,7.9,10.5,7.9,18.2c0,5.5-1.4,10.2-4.1,14c-2.7,3.9-6.6,6.7-11.6,8.4l16.9,23.9H705.8z M700.4,142.1
		c3.4-2.8,5.1-6.7,5.1-11.9c0-5.2-1.7-9.1-5.1-11.8c-3.4-2.7-8.3-4.1-14.7-4.1h-17.3v32h17.3C692.1,146.3,697,144.9,700.4,142.1z"/>
	<path class="st0" d="M793.4,105.4v71.2H785l-42.7-53.1v53.1h-10.2v-71.2h8.3l42.7,53.1v-53.1H793.4z"/>
	<path class="st0" d="M839.3,174.7c-3.7-1.8-6.6-4.3-8.8-7.6l5.9-6.9c3.9,5.6,8.9,8.4,14.8,8.4c4,0,7-1.2,9.1-3.7
		c2.1-2.4,3.1-6,3.1-10.8v-40h-25.7v-8.8h35.8v48.3c0,7.9-1.9,13.8-5.6,17.7s-9.3,5.9-16.6,5.9C846.9,177.4,843,176.5,839.3,174.7z"
		/>
	<path class="st0" d="M899.5,174.9c-5-1.7-8.9-3.8-11.7-6.5l3.8-7.9c2.7,2.4,6.2,4.4,10.4,5.9c4.2,1.5,8.6,2.3,13.1,2.3
		c5.9,0,10.3-1,13.2-3c2.9-2,4.4-4.7,4.4-8c0-2.4-0.8-4.4-2.4-5.9c-1.6-1.5-3.6-2.7-5.9-3.5s-5.6-1.7-9.9-2.7
		c-5.4-1.3-9.7-2.6-13-3.9c-3.3-1.3-6.1-3.3-8.4-5.9c-2.3-2.7-3.5-6.3-3.5-10.8c0-3.8,1-7.2,3-10.3c2-3.1,5-5.5,9.1-7.3
		s9.1-2.7,15.1-2.7c4.2,0,8.3,0.5,12.4,1.6c4.1,1.1,7.6,2.6,10.5,4.7l-3.4,8.1c-3-1.9-6.2-3.3-9.6-4.3c-3.4-1-6.7-1.5-10-1.5
		c-5.8,0-10.1,1.1-13,3.2c-2.9,2.1-4.3,4.8-4.3,8.1c0,2.4,0.8,4.4,2.4,5.9c1.6,1.5,3.6,2.7,6,3.6c2.4,0.8,5.7,1.7,9.8,2.7
		c5.4,1.3,9.7,2.6,12.9,3.9c3.3,1.3,6,3.3,8.4,5.9c2.3,2.6,3.5,6.2,3.5,10.7c0,3.7-1,7.1-3,10.2c-2,3.1-5.1,5.5-9.3,7.3
		c-4.1,1.8-9.2,2.7-15.3,2.7C909.6,177.4,904.4,176.5,899.5,174.9z"/>
</g>
<g>
	<path class="st0" d="M491.9,267.3c0,7.6-1.9,13.4-5.7,17.6c-3.8,4.2-9.1,6.3-16,6.3c-7,0-12.4-2.1-16.1-6.2
		c-3.8-4.2-5.6-10.1-5.6-17.7s1.9-13.5,5.7-17.6c3.8-4.1,9.2-6.2,16.2-6.2c6.9,0,12.2,2.1,16,6.3C490,253.9,491.9,259.7,491.9,267.3
		z M456.5,267.3c0,5.7,1.2,10,3.5,13c2.3,3,5.7,4.4,10.3,4.4c4.5,0,7.9-1.5,10.2-4.4s3.4-7.3,3.4-13c0-5.7-1.1-10-3.4-12.9
		c-2.3-2.9-5.7-4.4-10.2-4.4c-4.5,0-8,1.5-10.3,4.4C457.7,257.3,456.5,261.6,456.5,267.3z"/>
	<path class="st0" d="M532,290.6h-7.5V269c0-2.7-0.5-4.7-1.6-6.1c-1.1-1.3-2.8-2-5.2-2c-3.2,0-5.5,0.9-6.9,2.8
		c-1.5,1.9-2.2,5-2.2,9.4v17.5h-7.5v-35.1h5.8l1,4.6h0.4c1.1-1.7,2.6-3,4.5-3.9c1.9-0.9,4.1-1.4,6.5-1.4c8.4,0,12.6,4.3,12.6,12.9
		V290.6z"/>
	<path class="st0" d="M549.8,290.6h-7.5v-49.4h7.5V290.6z"/>
	<path class="st0" d="M560,246.2c0-1.3,0.4-2.4,1.1-3.1c0.7-0.7,1.8-1.1,3.1-1.1c1.3,0,2.3,0.4,3.1,1.1c0.7,0.7,1.1,1.7,1.1,3.1
		c0,1.3-0.4,2.3-1.1,3c-0.7,0.7-1.8,1.1-3.1,1.1c-1.4,0-2.4-0.4-3.1-1.1C560.4,248.4,560,247.4,560,246.2z M567.9,290.6h-7.5v-35.1
		h7.5V290.6z"/>
	<path class="st0" d="M609.5,290.6H602V269c0-2.7-0.5-4.7-1.6-6.1c-1.1-1.3-2.8-2-5.2-2c-3.2,0-5.5,0.9-6.9,2.8
		c-1.5,1.9-2.2,5-2.2,9.4v17.5h-7.5v-35.1h5.8l1,4.6h0.4c1.1-1.7,2.6-3,4.5-3.9c1.9-0.9,4.1-1.4,6.5-1.4c8.4,0,12.6,4.3,12.6,12.9
		V290.6z"/>
	<path class="st0" d="M635.2,291.2c-5.5,0-9.7-1.6-12.8-4.8c-3.1-3.2-4.6-7.6-4.6-13.2c0-5.7,1.4-10.2,4.3-13.5s6.8-4.9,11.8-4.9
		c4.6,0,8.3,1.4,11,4.2c2.7,2.8,4,6.7,4,11.6v4h-23.4c0.1,3.4,1,6,2.8,7.9c1.7,1.8,4.2,2.7,7.3,2.7c2.1,0,4-0.2,5.8-0.6s3.7-1,5.8-2
		v6.1c-1.8,0.9-3.7,1.5-5.5,1.8C639.7,291,637.6,291.2,635.2,291.2z M633.8,260.5c-2.4,0-4.3,0.8-5.7,2.3c-1.4,1.5-2.3,3.7-2.6,6.6
		h15.9c0-2.9-0.7-5.1-2.1-6.6C638.1,261.2,636.2,260.5,633.8,260.5z"/>
	<path class="st0" d="M694.7,250c-4.4,0-7.8,1.5-10.3,4.6c-2.5,3.1-3.7,7.4-3.7,12.8c0,5.7,1.2,10,3.6,12.9s5.9,4.4,10.4,4.4
		c2,0,3.9-0.2,5.7-0.6c1.8-0.4,3.8-0.9,5.7-1.5v6.5c-3.6,1.4-7.8,2.1-12.4,2.1c-6.8,0-12-2.1-15.6-6.2c-3.6-4.1-5.5-10-5.5-17.7
		c0-4.8,0.9-9,2.7-12.7s4.3-6.4,7.7-8.3c3.3-1.9,7.3-2.9,11.8-2.9c4.7,0,9.1,1,13.1,3l-2.7,6.3c-1.6-0.7-3.2-1.4-5-2
		C698.5,250.3,696.7,250,694.7,250z"/>
	<path class="st0" d="M746.3,290.6h-7.5V269c0-2.7-0.5-4.7-1.6-6.1c-1.1-1.3-2.8-2-5.2-2c-3.1,0-5.4,0.9-6.9,2.8
		c-1.5,1.9-2.2,5-2.2,9.4v17.4h-7.5v-49.4h7.5v12.5c0,2-0.1,4.2-0.4,6.4h0.5c1-1.7,2.4-3,4.2-3.9c1.8-0.9,3.9-1.4,6.3-1.4
		c8.5,0,12.8,4.3,12.8,12.9V290.6z"/>
	<path class="st0" d="M772,291.2c-5.5,0-9.7-1.6-12.8-4.8c-3.1-3.2-4.6-7.6-4.6-13.2c0-5.7,1.4-10.2,4.3-13.5
		c2.9-3.3,6.8-4.9,11.8-4.9c4.6,0,8.3,1.4,11,4.2c2.7,2.8,4,6.7,4,11.6v4h-23.4c0.1,3.4,1,6,2.8,7.9c1.7,1.8,4.2,2.7,7.3,2.7
		c2.1,0,4-0.2,5.8-0.6s3.7-1,5.8-2v6.1c-1.8,0.9-3.7,1.5-5.5,1.8C776.5,291,774.4,291.2,772,291.2z M770.6,260.5
		c-2.4,0-4.3,0.8-5.7,2.3c-1.4,1.5-2.3,3.7-2.6,6.6h15.9c0-2.9-0.7-5.1-2.1-6.6C774.8,261.2,773,260.5,770.6,260.5z"/>
	<path class="st0" d="M808.3,291.2c-5.3,0-9.3-1.5-12.1-4.6c-2.8-3.1-4.1-7.5-4.1-13.3c0-5.9,1.4-10.4,4.3-13.6
		c2.9-3.2,7.1-4.8,12.5-4.8c3.7,0,7,0.7,10,2.1l-2.3,6c-3.2-1.2-5.8-1.8-7.8-1.8c-6.1,0-9.1,4-9.1,12.1c0,3.9,0.8,6.9,2.3,8.9
		c1.5,2,3.7,3,6.6,3c3.3,0,6.5-0.8,9.4-2.5v6.5c-1.3,0.8-2.8,1.3-4.3,1.7C812.3,291,810.4,291.2,808.3,291.2z"/>
	<path class="st0" d="M833.5,272l4.2-5.3l10.6-11.3h8.6l-14.1,15.1l15,20H849l-11.3-15.4l-4.1,3.4v12h-7.4v-49.4h7.4v24.1l-0.4,6.8
		H833.5z"/>
	<path class="st0" d="M907.9,278c0,4.1-1.5,7.4-4.5,9.7c-3,2.3-7.1,3.5-12.3,3.5c-5.2,0-9.5-0.8-12.9-2.4v-7.2
		c2.1,1,4.4,1.8,6.7,2.3c2.4,0.6,4.6,0.9,6.6,0.9c3,0,5.2-0.6,6.6-1.7c1.4-1.1,2.1-2.7,2.1-4.6c0-1.7-0.7-3.2-2-4.4
		c-1.3-1.2-4-2.6-8.1-4.3c-4.2-1.7-7.2-3.7-8.9-5.9c-1.7-2.2-2.6-4.8-2.6-7.9c0-3.9,1.4-6.9,4.1-9.1c2.8-2.2,6.4-3.3,11.1-3.3
		c4.4,0,8.9,1,13.3,2.9l-2.4,6.2c-4.1-1.7-7.8-2.6-11-2.6c-2.5,0-4.3,0.5-5.6,1.6c-1.3,1.1-1.9,2.5-1.9,4.2c0,1.2,0.3,2.2,0.8,3.1
		c0.5,0.9,1.3,1.7,2.5,2.4c1.2,0.8,3.3,1.8,6.3,3c3.4,1.4,5.9,2.7,7.5,4c1.6,1.2,2.8,2.6,3.5,4.2C907.5,274.1,907.9,275.9,907.9,278
		z"/>
	<path class="st0" d="M910.7,255.5h8.1l7.1,19.9c1.1,2.8,1.8,5.5,2.2,8h0.3c0.2-1.2,0.5-2.6,1-4.2s3.2-9.5,8.1-23.7h8.1l-15,39.8
		c-2.7,7.3-7.3,10.9-13.6,10.9c-1.7,0-3.3-0.2-4.8-0.5v-5.9c1.1,0.3,2.4,0.4,3.8,0.4c3.6,0,6.1-2.1,7.6-6.3l1.3-3.3L910.7,255.5z"/>
	<path class="st0" d="M974.5,280.6c0,3.4-1.2,6.1-3.7,7.9c-2.5,1.8-6.1,2.7-10.7,2.7c-4.7,0-8.4-0.7-11.3-2.1v-6.4
		c4.1,1.9,8,2.9,11.5,2.9c4.6,0,6.9-1.4,6.9-4.2c0-0.9-0.3-1.6-0.8-2.2s-1.3-1.2-2.5-1.8c-1.2-0.6-2.8-1.4-4.9-2.2
		c-4-1.6-6.8-3.1-8.2-4.7c-1.4-1.6-2.1-3.6-2.1-6.1c0-3,1.2-5.3,3.6-7c2.4-1.7,5.7-2.5,9.9-2.5c4.1,0,8,0.8,11.7,2.5l-2.4,5.6
		c-3.8-1.6-7-2.3-9.6-2.3c-3.9,0-5.9,1.1-5.9,3.4c0,1.1,0.5,2,1.5,2.8s3.3,1.8,6.7,3.1c2.9,1.1,5,2.1,6.3,3.1c1.3,0.9,2.3,2,2.9,3.2
		S974.5,278.9,974.5,280.6z"/>
	<path class="st0" d="M995.6,285.2c1.8,0,3.6-0.3,5.5-0.9v5.6c-0.8,0.4-1.9,0.7-3.2,0.9c-1.3,0.2-2.7,0.4-4,0.4
		c-7.1,0-10.6-3.7-10.6-11.2v-18.9h-4.8v-3.3l5.1-2.7l2.5-7.4h4.6v7.8h10v5.6h-10v18.8c0,1.8,0.4,3.1,1.3,4
		C993,284.8,994.2,285.2,995.6,285.2z"/>
	<path class="st0" d="M1023.4,291.2c-5.5,0-9.7-1.6-12.8-4.8c-3.1-3.2-4.6-7.6-4.6-13.2c0-5.7,1.4-10.2,4.3-13.5
		c2.9-3.3,6.8-4.9,11.8-4.9c4.6,0,8.3,1.4,11,4.2c2.7,2.8,4,6.7,4,11.6v4h-23.4c0.1,3.4,1,6,2.8,7.9c1.7,1.8,4.2,2.7,7.3,2.7
		c2.1,0,4-0.2,5.8-0.6s3.7-1,5.8-2v6.1c-1.8,0.9-3.7,1.5-5.5,1.8C1028,291,1025.8,291.2,1023.4,291.2z M1022.1,260.5
		c-2.4,0-4.3,0.8-5.7,2.3c-1.4,1.5-2.3,3.7-2.6,6.6h15.9c0-2.9-0.7-5.1-2.1-6.6C1026.3,261.2,1024.4,260.5,1022.1,260.5z"/>
	<path class="st0" d="M1075.1,290.6h-7.5v-21.6c0-2.7-0.5-4.7-1.5-6c-1-1.3-2.6-2-4.8-2c-2.9,0-5,0.9-6.3,2.8c-1.3,1.9-2,5-2,9.3
		v17.5h-7.5v-35.1h5.8l1,4.6h0.4c1-1.7,2.4-3,4.2-3.9s3.9-1.4,6.1-1.4c5.4,0,9,1.8,10.7,5.5h0.5c1-1.7,2.5-3.1,4.4-4.1
		c1.9-1,4-1.5,6.5-1.5c4.2,0,7.2,1.1,9.2,3.2c1.9,2.1,2.9,5.3,2.9,9.7v22.9h-7.5v-21.6c0-2.7-0.5-4.7-1.5-6c-1-1.3-2.6-2-4.8-2
		c-2.9,0-5,0.9-6.4,2.7c-1.3,1.8-2,4.6-2,8.3V290.6z"/>
</g>
</svg>
